<svg width="539" height="593" viewBox="0 0 539 593" fill="none" xmlns="http://www.w3.org/2000/svg">
<rect width="539" height="593" fill="white"/>
<path d="M395.255 256.698C408.383 268.32 418.967 280.781 425.772 292.519C437.468 271.602 445.279 246.75 445.381 230.918C445.381 230.807 445.381 230.705 445.381 230.612C445.381 207.188 422.012 198.069 401.888 198.069C381.765 198.069 358.396 207.183 358.396 230.612C358.396 230.932 358.396 231.363 358.396 231.878C369.609 236.857 382.914 245.767 395.255 256.698Z" fill="#FA2921"/>
<path d="M323.636 320.574C331.842 311.447 344.428 301.549 358.637 293.186C373.749 284.29 388.867 278.078 402.134 275.232C385.858 257.644 364.635 242.536 349.606 237.548C349.499 237.515 349.402 237.483 349.314 237.45C327.034 230.214 311.143 249.619 304.926 268.76C298.705 287.901 300.156 312.944 322.436 320.18C322.737 320.282 323.145 320.412 323.636 320.574Z" fill="#ED79B5"/>
<path d="M499.082 268.436C492.861 249.295 476.974 229.889 454.695 237.126C454.389 237.223 453.981 237.357 453.489 237.515C452.214 249.726 447.852 265.13 441.269 280.243C434.274 296.32 425.693 310.232 416.635 320.333C440.138 324.992 466.191 324.747 481.281 319.949C481.387 319.916 481.485 319.884 481.573 319.851C503.852 312.619 505.303 287.577 499.082 268.436Z" fill="#FFB400"/>
<path d="M382.024 339.289C378.237 322.169 376.999 305.87 378.39 292.375C356.634 302.421 335.703 317.937 326.316 330.685C326.251 330.773 326.191 330.857 326.135 330.935C312.367 349.886 325.913 370.998 342.193 382.828C358.474 394.659 382.738 401.019 396.506 382.068C396.696 381.808 396.947 381.461 397.248 381.043C391.106 370.414 385.584 355.384 382.024 339.289Z" fill="#1E83F7"/>
<path d="M477.507 329.707C465.501 332.27 449.503 332.878 433.092 331.292C415.638 329.605 399.756 325.748 387.351 320.25C390.183 344.045 398.472 368.745 407.697 381.614C407.762 381.702 407.822 381.785 407.878 381.864C421.646 400.815 445.91 394.455 462.191 382.624C478.472 370.794 492.022 349.682 478.254 330.731C478.064 330.472 477.813 330.124 477.507 329.707Z" fill="#18C249"/>
<path d="M121.068 255.675C134.196 267.297 144.78 279.758 151.585 291.496C163.281 270.579 171.093 245.726 171.195 229.895C171.195 229.784 171.195 229.682 171.195 229.589C171.195 206.165 147.826 197.046 127.702 197.046C107.578 197.046 84.2088 206.16 84.2088 229.589C84.2088 229.909 84.2088 230.34 84.2088 230.855C95.4228 235.834 108.727 244.744 121.068 255.675Z" fill="#FA2921"/>
<path d="M49.4497 319.551C57.6551 310.423 70.2412 300.526 84.4499 292.163C99.5625 283.267 114.68 277.055 127.947 274.209C111.671 256.621 90.4486 241.513 75.4194 236.524C75.3127 236.492 75.2154 236.46 75.1273 236.427C52.8478 229.191 36.9563 248.596 30.7397 267.737C24.5185 286.878 25.9695 311.921 48.2491 319.157C48.5504 319.259 48.9583 319.389 49.4497 319.551Z" fill="#ED79B5"/>
<path d="M224.895 267.413C218.674 248.272 202.787 228.866 180.508 236.103C180.202 236.2 179.794 236.334 179.303 236.492C178.028 248.703 173.665 264.107 167.083 279.22C160.087 295.297 151.506 309.209 142.448 319.31C165.952 323.969 192.005 323.723 207.094 318.925C207.201 318.893 207.298 318.861 207.386 318.828C229.666 311.596 231.117 286.554 224.895 267.413Z" fill="#FFB400"/>
<path d="M107.837 338.266C104.05 321.146 102.812 304.847 104.203 291.352C82.4472 301.398 61.5167 316.914 52.1292 329.662C52.0643 329.75 52.0041 329.833 51.9484 329.912C38.1802 348.863 51.7259 369.975 68.0068 381.805C84.2876 393.636 108.551 399.996 122.32 381.045C122.51 380.785 122.76 380.438 123.061 380.02C116.919 369.391 111.398 354.361 107.837 338.266Z" fill="#1E83F7"/>
<path d="M203.321 328.684C191.314 331.247 175.316 331.855 158.905 330.269C141.451 328.582 125.569 324.725 113.164 319.227C115.996 343.022 124.285 367.722 133.51 380.591C133.575 380.679 133.635 380.762 133.691 380.841C147.459 399.792 171.723 393.432 188.004 381.601C204.285 369.771 217.835 348.659 204.067 329.708C203.877 329.449 203.626 329.101 203.321 328.684Z" fill="#18C249"/>
<path d="M519.804 215.811C508.046 202.693 490.863 195 472.549 195H336.881C317.888 195 300.928 202.917 290.301 216.717C287.586 220.112 285.326 223.731 283.517 227.801C274.02 225.764 264.07 225.764 254.349 227.801C252.54 223.731 250.28 220.109 247.793 216.717C236.941 202.917 219.981 195 201.216 195H65.5476C47.2337 195 30.0468 202.693 18.289 215.811C6.53424 228.932 1.10515 247.03 3.59244 266.258L14.8989 333.898C19.4221 370.091 51.5297 398.594 88.1574 398.594H155.99C191.263 398.594 225.407 371.9 233.547 339.099L254.349 276.212C262.94 269.877 274.926 269.877 283.517 276.212L303.867 337.517C312.459 371.676 346.83 398.594 382.1 398.594H449.933C486.336 398.594 518.671 370.091 522.967 334.801L534.498 265.352C536.758 247.03 531.332 228.932 519.801 215.811H519.804ZM213.876 254.495L189.909 326.657C186.743 340.681 170.462 353.35 155.993 353.35H88.1605C74.594 353.35 61.4789 342.039 59.6702 327.336L48.3638 259.696C47.6851 254.268 49.0424 249.291 52.2083 245.896C55.3743 242.277 60.1216 240.24 65.5476 240.24H201.216C206.19 240.24 210.035 241.822 212.522 244.538C214.104 247.254 214.782 251.552 213.879 254.492L213.876 254.495ZM489.733 258.793L478.202 328.242C476.621 342.042 463.278 353.35 449.939 353.35L424.194 353.525H421.081C406.08 372.018 402.861 375.84 402.861 375.84C401.223 377.721 400.24 378.833 399.449 379.714C398.422 380.857 398.275 381.004 397.323 382.056C393.092 386.731 392.152 388.129 390.263 388.41C389.864 388.469 388.968 388.59 388.083 388.098C387.125 387.566 386.736 386.622 386.608 386.251C386.608 386.251 386.552 383.925 386.527 383.427L387.15 353.528C372.677 353.528 351.356 340.684 347.284 325.078L324.447 256.083C323.317 251.558 323.769 247.26 325.577 244.548C328.065 241.832 331.909 240.25 336.884 240.25H472.552C477.978 240.25 482.728 242.286 485.891 245.905C489.057 249.3 490.414 254.274 489.736 258.799L489.733 258.793Z" fill="black"/>
<path d="M459.135 282.332H441.733V300.788H459.135V282.332Z" fill="black"/>
<path d="M424.332 282.332H406.93V300.788H424.332V282.332Z" fill="black"/>
<path d="M389.528 282.332H372.126V300.788H389.528V282.332Z" fill="black"/>
</svg>
